<?xml version="1.0" standalone="no"?>
<!DOCTYPE svg PUBLIC "-//W3C//DTD SVG 20010904//EN"
 "http://www.w3.org/TR/2001/REC-SVG-20010904/DTD/svg10.dtd">
<svg version="1.0" xmlns="http://www.w3.org/2000/svg"
 width="1280.000000pt" height="843.000000pt" viewBox="0 0 1280.000000 843.000000"
 preserveAspectRatio="xMidYMid meet">
<metadata>
Created by potrace 1.15, written by Peter Selinger 2001-2017
</metadata>
<g transform="translate(0.000000,843.000000) scale(0.100000,-0.100000)"
fill="#fff" stroke="none">
<path d="M3181 8393 c-39 -47 -88 -184 -102 -279 -12 -89 2 -207 35 -300 96
-264 370 -479 740 -579 193 -52 249 -59 471 -59 192 0 219 2 320 26 100 24
290 86 283 93 -2 1 -46 -9 -98 -23 -85 -22 -114 -25 -275 -26 -148 0 -197 4
-275 21 -194 43 -345 109 -455 199 -111 90 -153 114 -201 114 -44 0 -94 -30
-94 -56 0 -35 -21 -7 -49 65 -41 105 -55 228 -41 346 23 191 23 219 6 280 -22
74 -61 115 -110 115 -19 0 -38 -4 -41 -10 -15 -24 -24 -7 -19 33 5 33 2 47
-11 60 -26 26 -51 20 -84 -20z m-31 -193 c-15 -79 -12 -224 6 -294 20 -77 83
-214 129 -277 47 -66 36 -63 -14 4 -127 169 -177 374 -135 558 18 81 29 88 14
9z"/>
<path d="M9530 8415 c-8 -10 -11 -32 -7 -61 4 -39 2 -44 -12 -38 -73 32 -131
-3 -157 -94 -14 -46 -15 -74 -8 -152 5 -52 9 -158 9 -235 0 -146 -10 -195 -58
-289 l-19 -40 -14 27 c-18 34 -43 47 -89 47 -48 0 -94 -25 -190 -104 -121
-100 -281 -170 -485 -213 -65 -14 -127 -18 -260 -17 -154 1 -186 4 -270 26
-52 14 -96 24 -98 23 -5 -5 104 -44 198 -71 536 -156 1249 38 1516 412 53 74
98 168 119 249 20 77 19 222 -1 304 -20 80 -67 188 -96 218 -25 26 -60 30 -78
8z m146 -324 c12 -153 -57 -352 -167 -481 -21 -24 -16 -12 16 37 101 159 140
294 131 448 -3 55 -8 114 -11 130 -3 18 1 12 10 -14 8 -25 18 -79 21 -120z"/>
<path d="M3810 7880 c-19 -11 -45 -28 -58 -38 l-24 -18 40 -12 c51 -16 99 -68
151 -168 70 -136 161 -229 280 -286 77 -37 220 -63 288 -53 l47 7 -54 19 c-77
27 -127 63 -160 115 -84 134 -44 292 98 387 l24 15 -25 17 c-63 41 -128 27
-166 -36 l-18 -30 -21 35 c-43 73 -114 88 -142 29 l-15 -32 -26 20 c-68 49
-160 61 -219 29z m210 -201 l39 -74 1 40 c2 77 19 85 19 9 1 -89 28 -145 94
-194 55 -41 55 -52 -1 -16 -58 37 -96 88 -160 218 -62 127 -57 139 8 17z"/>
<path d="M8623 7882 c-11 -9 -31 -33 -42 -52 -12 -19 -21 -30 -21 -23 0 6 -15
28 -34 47 -40 43 -82 47 -136 15 l-35 -22 25 -15 c160 -101 186 -305 55 -434
-35 -35 -122 -77 -163 -79 -9 -1 -1 -5 18 -10 44 -12 154 -3 223 18 149 44
280 154 354 298 67 129 100 166 169 190 l33 11 -56 37 c-83 55 -161 49 -250
-19 l-33 -25 0 24 c0 50 -63 74 -107 39z m161 -222 c-69 -141 -113 -195 -186
-230 -24 -11 -34 -15 -23 -8 10 7 43 35 72 61 43 41 54 58 64 101 6 29 10 73
8 98 -5 62 9 51 17 -14 l7 -51 20 39 c21 42 77 134 82 134 2 0 -26 -59 -61
-130z"/>
<path d="M2984 7786 c-3 -13 -1 -33 5 -44 6 -12 11 -22 11 -24 0 -2 -23 -1
-52 1 -66 4 -113 -19 -139 -71 -44 -86 -11 -162 82 -188 28 -8 40 2 19 15 -20
13 -11 63 16 84 51 40 105 24 207 -61 73 -61 198 -133 290 -166 122 -43 152
-48 83 -12 -118 61 -259 188 -369 335 -65 86 -126 155 -139 155 -4 0 -10 -11
-14 -24z"/>
<path d="M6373 7795 c-32 -22 -46 -87 -38 -170 7 -81 64 -325 75 -325 4 0 18
37 30 83 56 207 63 356 19 403 -26 28 -55 31 -86 9z"/>
<path d="M9782 7803 c-7 -3 -47 -51 -89 -106 -135 -180 -266 -303 -395 -373
-76 -41 -72 -42 29 -8 138 46 228 97 377 213 70 54 126 65 169 31 30 -24 35
-55 12 -87 -14 -20 -14 -21 21 -13 108 25 134 154 48 230 -34 29 -41 31 -95
28 -63 -3 -62 -4 -42 47 5 16 -20 43 -35 38z"/>
<path d="M2304 7695 c-43 -82 -58 -155 -52 -259 4 -71 10 -96 35 -146 l32 -60
-43 0 c-148 0 -327 -87 -407 -197 -17 -24 -29 -46 -27 -49 3 -2 40 6 84 17
117 32 305 30 539 -4 173 -25 270 -35 582 -57 295 -21 505 -88 701 -223 87
-60 181 -158 224 -233 17 -30 32 -53 35 -50 2 2 -13 47 -35 99 -94 229 -275
424 -497 535 -94 47 -209 79 -386 107 -256 41 -373 70 -474 119 -172 84 -265
211 -275 375 l-5 86 -31 -60z"/>
<path d="M10458 7696 c9 -143 -80 -289 -233 -381 -90 -53 -218 -90 -456 -129
-118 -20 -239 -43 -270 -51 -142 -38 -303 -127 -421 -234 -109 -99 -221 -269
-269 -410 -26 -74 -24 -75 19 -2 77 130 259 274 443 349 160 66 322 96 604
112 196 11 277 20 490 52 193 29 400 29 509 -1 44 -11 81 -21 83 -21 14 0 -35
66 -80 106 -99 91 -249 150 -360 142 -26 -2 -47 -2 -47 -1 0 1 11 19 25 39 53
78 70 212 40 323 -14 54 -63 161 -74 161 -3 0 -4 -24 -3 -54z"/>
<path d="M5992 7704 c-67 -47 21 -187 237 -381 57 -51 106 -91 108 -89 7 6
-64 171 -113 266 -56 107 -106 175 -147 200 -39 24 -56 25 -85 4z"/>
<path d="M6746 7701 c-64 -42 -139 -164 -220 -354 -25 -59 -46 -110 -46 -113
0 -26 258 220 317 303 53 74 66 132 38 163 -23 25 -52 25 -89 1z"/>
<path d="M5465 7401 c-135 -39 -220 -91 -392 -239 -282 -243 -477 -348 -718
-388 l-40 -6 40 -16 c25 -9 76 -15 136 -16 l97 -1 -25 -30 c-25 -29 -25 -30
-19 -175 6 -132 5 -148 -12 -182 -11 -21 -15 -35 -8 -31 6 4 79 10 161 14 168
6 222 23 253 80 36 64 38 66 55 33 18 -36 93 -121 117 -134 16 -9 17 -3 12 85
-2 52 -2 95 1 95 3 0 23 -10 43 -22 l37 -22 -6 30 c-20 91 -28 188 -23 256 7
83 41 208 56 208 6 0 10 -4 10 -9 0 -5 14 -23 31 -40 25 -26 39 -31 76 -31 38
0 50 5 79 34 43 43 44 58 4 43 -61 -23 -118 25 -127 106 -11 91 71 176 228
237 147 57 301 64 458 20 40 -12 75 -19 77 -17 9 8 -205 108 -261 122 -82 21
-262 19 -340 -4z m46 -66 c-91 -36 -190 -105 -267 -188 -36 -40 -125 -160
-196 -267 -169 -254 -225 -325 -313 -393 -23 -18 -4 7 46 59 52 54 121 143
174 224 48 74 113 173 144 220 66 100 216 255 284 295 59 34 156 75 177 74 8
0 -14 -11 -49 -24z"/>
<path d="M6995 7405 c-78 -21 -146 -50 -210 -90 -61 -37 -58 -38 50 -7 95 26
281 23 370 -6 152 -51 262 -127 286 -199 33 -101 -52 -205 -132 -163 -33 18
-23 -15 16 -49 60 -52 132 -39 175 32 l19 31 11 -30 c45 -116 56 -297 27 -416
-8 -32 -12 -58 -9 -58 2 0 20 9 38 21 31 19 35 19 40 4 4 -9 4 -53 0 -97 l-7
-80 40 31 c21 17 56 57 77 88 l37 56 18 -35 c43 -83 109 -108 289 -108 60 0
120 -4 134 -10 l25 -9 -20 34 c-18 31 -20 48 -17 183 3 139 1 152 -18 179
l-21 28 91 1 c96 0 179 19 155 35 -8 5 -28 9 -44 9 -40 0 -144 30 -231 67
-131 57 -301 173 -469 323 -143 128 -268 203 -391 234 -76 20 -259 20 -329 1z
m310 -66 c84 -31 196 -111 270 -192 37 -40 110 -139 163 -220 138 -211 199
-297 271 -380 63 -72 63 -72 -20 13 -57 59 -122 144 -215 285 -73 110 -158
230 -189 268 -87 105 -197 184 -318 228 -29 10 -44 18 -35 19 10 0 42 -9 73
-21z"/>
<path d="M4970 7266 c-80 -44 -349 -122 -525 -153 -108 -18 -509 -25 -594 -10
-41 7 -43 6 -30 -9 27 -33 133 -94 198 -115 36 -11 94 -21 128 -22 33 -1 59
-5 57 -8 -2 -4 -50 -26 -106 -50 l-101 -44 38 -9 c137 -32 492 101 780 292
144 96 236 172 155 128z m-270 -151 c0 -2 -43 -18 -95 -35 -123 -39 -298 -58
-405 -43 l-75 10 137 2 c136 1 276 21 378 54 51 17 60 19 60 12z"/>
<path d="M7835 7244 c91 -80 335 -228 485 -294 182 -80 372 -124 449 -103 l34
9 -90 37 c-131 55 -138 62 -61 64 84 3 184 36 260 87 69 47 87 72 41 59 -15
-4 -134 -8 -263 -8 -201 0 -254 4 -364 23 -154 28 -304 70 -435 122 l-96 39
40 -35z m395 -161 c76 -20 130 -27 270 -32 l175 -7 -88 -8 c-144 -14 -347 17
-457 68 -19 9 -26 14 -15 10 11 -3 63 -17 115 -31z"/>
<path d="M2620 6876 c0 -10 64 -33 151 -55 128 -33 315 -25 429 17 32 12 -54
19 -325 27 -110 3 -212 8 -227 11 -16 3 -28 3 -28 0z"/>
<path d="M9885 6864 c-343 -16 -316 -13 -285 -25 132 -53 346 -50 516 6 50 17
81 36 54 33 -8 0 -136 -7 -285 -14z"/>
<path d="M2370 6750 c0 -16 93 -90 141 -112 50 -24 62 -38 31 -38 -30 0 -68
-49 -110 -140 -25 -55 -52 -97 -76 -118 -31 -27 -34 -33 -19 -38 25 -7 105
-47 181 -89 78 -43 128 -46 190 -10 l42 24 0 -46 c0 -51 28 -163 41 -163 4 0
10 12 14 28 3 15 20 49 37 76 32 53 32 53 64 0 9 -16 13 -11 29 36 39 122 128
255 207 311 l30 22 -7 -22 c-9 -29 12 -88 38 -106 27 -19 97 -20 122 -1 17 12
17 13 -9 20 -61 15 -85 81 -51 146 38 73 126 100 268 81 152 -20 271 -79 385
-191 l66 -65 -29 50 c-78 135 -159 218 -271 277 -156 82 -301 92 -569 38 -286
-57 -522 -52 -684 13 -34 14 -61 21 -61 17z m1200 -81 c73 -16 57 -20 -24 -7
-82 14 -196 1 -301 -33 -38 -13 -160 -68 -270 -122 -110 -54 -222 -107 -250
-117 -62 -23 -176 -53 -181 -47 -2 2 26 12 63 22 97 26 186 64 347 149 161 85
274 132 361 151 75 17 188 18 255 4z"/>
<path d="M9315 6750 c-187 -29 -348 -139 -451 -308 -52 -85 -56 -101 -13 -49
70 84 212 173 330 203 78 21 221 24 272 6 48 -18 88 -70 94 -125 5 -39 2 -46
-27 -70 -17 -15 -39 -27 -48 -27 -15 -1 -14 -3 2 -15 11 -8 39 -15 62 -15 55
0 94 42 94 101 l0 40 41 -33 c75 -61 152 -179 190 -293 19 -58 28 -64 41 -27
7 18 17 31 23 29 5 -2 26 -36 47 -76 20 -40 39 -68 42 -63 12 20 36 128 36
164 l0 39 30 -22 c19 -15 48 -24 82 -26 44 -3 62 1 108 27 71 39 170 87 194
95 18 5 16 8 -12 25 -23 14 -44 45 -78 116 -53 108 -87 154 -115 154 -32 0
-21 14 31 39 50 24 140 95 140 111 0 4 -28 -4 -62 -17 -167 -68 -397 -70 -713
-8 -145 28 -260 37 -340 25z m165 -85 c101 -24 160 -49 373 -156 109 -55 237
-113 285 -130 55 -19 72 -27 47 -24 -61 10 -203 69 -385 162 -212 107 -324
144 -445 146 -49 1 -110 -1 -135 -5 l-45 -6 40 13 c54 18 186 18 265 0z m777
-321 c-3 -3 -12 -4 -19 -1 -8 3 -5 6 6 6 11 1 17 -2 13 -5z"/>
<path d="M578 6483 c-4 -117 -10 -171 -23 -206 -24 -65 -103 -150 -173 -184
-54 -27 -65 -28 -220 -32 l-162 -3 0 -2223 0 -2224 168 -3 c149 -3 172 -5 213
-26 74 -36 125 -87 161 -160 32 -65 33 -69 37 -224 l3 -158 494 0 c431 0 494
2 494 15 0 13 -62 15 -477 17 l-478 3 -5 155 c-5 153 -6 156 -39 218 -41 76
-104 135 -179 170 -52 24 -71 27 -204 30 l-148 4 0 2183 0 2182 138 5 c108 4
149 10 194 27 100 39 180 119 219 221 15 41 19 77 19 190 l0 140 480 0 c473 0
480 0 480 20 0 20 -7 20 -494 20 l-494 0 -4 -157z"/>
<path d="M11225 6630 c-3 -5 -3 -14 0 -20 4 -6 175 -10 479 -10 l473 0 5 -143
c4 -134 6 -147 35 -209 39 -84 88 -137 160 -176 72 -38 148 -52 280 -52 l103
0 0 -2184 0 -2184 -148 -4 c-143 -3 -149 -4 -214 -36 -83 -41 -158 -120 -189
-200 -18 -47 -23 -83 -27 -199 l-4 -143 -477 0 c-418 0 -478 -2 -478 -15 0
-13 62 -15 498 -15 l497 0 4 163 c3 153 5 165 31 218 32 66 99 132 165 162 40
19 71 23 212 27 l165 5 3 2222 2 2221 -162 4 c-152 3 -167 5 -219 29 -72 34
-134 96 -168 168 -24 52 -26 67 -29 219 l-4 162 -493 0 c-319 0 -496 -4 -500
-10z"/>
<path d="M745 6388 c-19 -213 -115 -359 -293 -445 -60 -29 -93 -37 -178 -46
l-104 -11 0 -2053 0 -2053 59 0 c215 0 396 -120 480 -319 14 -34 27 -93 33
-158 l11 -103 408 0 c317 0 408 3 412 13 2 6 0 25 -5 42 -4 16 -5 45 -2 62 l6
33 -341 0 -341 0 -5 28 c-3 15 -17 62 -30 104 -65 208 -243 371 -465 427 l-75
19 -3 1910 -2 1910 76 17 c114 25 225 87 309 170 102 102 156 205 189 358 l6
27 339 0 338 0 1 53 c0 28 2 61 4 72 3 20 -3 20 -408 23 l-412 2 -7 -82z"/>
<path d="M11225 6433 c8 -39 9 -54 3 -88 -3 -20 3 -20 338 -23 l341 -2 12 -58
c42 -189 174 -358 346 -443 44 -21 110 -46 148 -56 l67 -16 0 -1912 0 -1911
-62 -12 c-78 -14 -206 -77 -275 -134 -110 -92 -188 -218 -220 -355 l-17 -73
-341 -2 c-297 -3 -339 -5 -336 -18 3 -8 3 -28 2 -45 -2 -16 -4 -41 -5 -55 l-1
-25 413 -3 412 -2 0 53 c0 295 225 527 512 527 l68 0 0 2053 0 2053 -106 11
c-92 10 -118 17 -188 52 -89 44 -171 119 -219 202 -34 59 -67 186 -67 261 l0
58 -416 0 -416 0 7 -37z"/>
<path d="M2766 2352 c-9 -32 -16 -79 -16 -104 l0 -47 -46 26 c-67 38 -117 30
-231 -36 -50 -28 -108 -57 -129 -63 -23 -6 -33 -13 -24 -16 35 -11 75 -62 112
-142 42 -91 69 -127 107 -141 23 -9 21 -11 -27 -35 -50 -25 -142 -98 -142
-114 0 -4 28 4 62 17 85 35 193 52 320 53 122 0 209 -10 393 -47 392 -78 637
20 811 322 l28 50 -66 -65 c-115 -112 -233 -171 -385 -191 -142 -19 -230 8
-268 81 -34 65 -10 131 51 146 26 7 26 8 9 20 -25 19 -95 18 -122 -1 -26 -18
-47 -77 -38 -106 l7 -22 -30 22 c-79 56 -168 189 -207 311 -16 47 -20 52 -29
36 -32 -53 -32 -53 -64 0 -17 27 -34 61 -37 77 -10 41 -21 33 -39 -31z m-86
-298 c45 -14 174 -71 288 -127 114 -57 237 -113 274 -125 126 -41 235 -49 356
-27 15 2 7 -2 -18 -11 -33 -11 -72 -14 -150 -11 -138 6 -222 34 -459 155 -196
100 -251 124 -346 152 -33 10 -52 19 -43 19 9 1 53 -11 98 -25z"/>
<path d="M9970 2337 c-19 -39 -40 -72 -45 -74 -6 -2 -16 11 -23 29 -13 37 -22
31 -41 -27 -38 -114 -118 -237 -192 -295 l-39 -32 0 42 c0 57 -42 100 -97 100
-39 0 -98 -29 -61 -30 9 0 31 -12 48 -27 29 -24 32 -31 27 -71 -6 -55 -32 -91
-83 -117 -31 -16 -58 -20 -134 -20 -169 1 -319 65 -446 190 -35 34 -64 61 -64
59 0 -2 20 -36 44 -76 107 -176 259 -277 461 -308 88 -13 160 -8 331 26 321
63 558 57 729 -16 45 -19 45 -19 35 0 -14 26 -93 85 -141 107 -42 18 -51 33
-20 33 28 0 62 46 115 155 33 66 56 102 75 113 l28 15 -96 50 c-53 27 -114 58
-135 69 -50 25 -124 21 -167 -11 l-29 -22 0 39 c0 40 -26 153 -38 163 -4 3
-23 -26 -42 -64z m287 -253 c-3 -3 -12 -4 -19 -1 -8 3 -5 6 6 6 11 1 17 -2 13
-5z m-119 -34 c-48 -16 -176 -74 -285 -129 -212 -107 -271 -132 -373 -156 -79
-18 -211 -18 -265 0 l-40 13 45 -6 c25 -4 86 -6 135 -5 125 2 216 33 470 158
198 98 335 154 380 154 11 0 -19 -13 -67 -29z"/>
<path d="M5080 2094 c-22 -20 -55 -59 -72 -86 -35 -53 -34 -53 -70 11 -31 57
-85 74 -253 80 -82 4 -155 10 -161 14 -7 4 -3 -10 8 -31 17 -34 18 -50 12
-182 l-6 -146 25 -30 26 -30 -87 0 c-92 1 -194 -20 -170 -35 7 -5 27 -9 44 -9
56 0 205 -50 303 -101 120 -61 236 -145 398 -284 140 -121 247 -190 349 -225
92 -31 280 -40 375 -16 60 15 275 114 266 123 -3 2 -38 -5 -78 -17 -157 -44
-311 -37 -458 20 -157 61 -239 146 -228 237 9 81 66 129 127 106 40 -15 39 0
-4 43 -29 29 -41 34 -79 34 -37 0 -51 -5 -76 -31 -17 -17 -31 -35 -31 -40 0
-5 -4 -9 -10 -9 -15 0 -49 125 -56 208 -5 68 3 165 23 256 l6 30 -37 -22 c-20
-12 -40 -22 -43 -22 -3 0 -3 43 -1 95 3 52 4 95 2 95 -2 0 -22 -16 -44 -36z
m-268 -221 c49 -52 143 -182 260 -360 155 -237 279 -354 439 -418 35 -14 51
-23 34 -20 -16 3 -68 24 -115 47 -71 34 -101 57 -181 137 -59 60 -121 135
-164 201 -37 58 -102 157 -143 220 -42 63 -114 155 -161 204 -50 52 -69 77
-46 59 22 -17 56 -49 77 -70z"/>
<path d="M7676 2052 c4 -44 4 -88 0 -97 -5 -15 -9 -15 -40 4 -18 12 -36 21
-38 21 -3 0 1 -26 9 -57 29 -120 18 -301 -27 -417 l-11 -30 -19 31 c-43 71
-115 84 -175 32 -39 -34 -49 -67 -16 -49 75 40 155 -47 136 -148 -14 -77 -141
-169 -300 -218 -79 -24 -285 -25 -365 -2 -30 9 -66 20 -80 23 l-25 7 23 -16
c45 -34 179 -94 243 -110 94 -23 256 -21 343 4 129 37 238 102 381 230 227
203 430 325 621 375 32 8 73 15 91 15 17 0 34 4 38 10 10 16 -76 34 -166 34
l-87 0 22 29 c20 27 21 39 18 179 -3 136 -2 152 17 184 12 19 15 32 9 27 -7
-4 -81 -10 -164 -13 -177 -7 -210 -19 -261 -93 l-32 -47 -36 55 c-20 30 -55
69 -76 86 l-40 31 7 -80z m350 -156 c-76 -78 -127 -147 -286 -391 -117 -178
-204 -276 -305 -344 -73 -48 -169 -92 -203 -90 -9 0 1 6 24 13 59 19 152 70
216 121 80 63 148 149 306 385 100 151 159 228 222 293 48 48 89 87 93 87 3 0
-27 -33 -67 -74z"/>
<path d="M3970 1943 c-40 -70 -164 -196 -242 -246 -196 -125 -399 -187 -673
-207 -360 -26 -421 -32 -585 -57 -226 -34 -425 -36 -545 -5 -44 11 -82 19 -84
17 -6 -7 26 -52 65 -91 85 -85 214 -143 335 -151 l76 -6 -30 -59 c-56 -108
-49 -277 17 -403 l31 -60 5 86 c11 181 121 315 329 399 83 34 156 51 395 90
202 33 315 64 411 112 222 111 403 306 497 535 22 52 37 97 35 99 -3 3 -19
-21 -37 -53z"/>
<path d="M8790 1994 c0 -16 40 -114 75 -183 44 -88 140 -215 212 -282 115
-105 279 -196 422 -234 31 -8 151 -31 268 -50 234 -39 312 -60 420 -111 170
-81 281 -245 271 -400 -1 -30 0 -54 3 -54 11 0 60 107 74 161 30 111 13 245
-40 323 -14 20 -25 38 -25 39 0 1 19 1 43 -1 111 -9 263 49 360 138 48 44 98
110 84 110 -2 0 -38 -9 -81 -20 -156 -40 -250 -38 -631 14 -99 14 -265 30
-370 36 -316 18 -507 60 -688 150 -152 77 -291 197 -361 314 -20 33 -36 56
-36 50z"/>
<path d="M2811 1619 c-109 -21 -251 -79 -159 -65 18 3 121 8 228 11 107 3 228
8 269 12 l74 6 -39 13 c-99 33 -270 43 -373 23z"/>
<path d="M9685 1615 c-113 -26 -118 -32 -35 -39 100 -8 524 -24 529 -20 6 5
-46 24 -124 46 -91 26 -285 33 -370 13z"/>
<path d="M4021 1581 c-20 -5 -8 -13 78 -50 55 -24 103 -46 105 -50 3 -4 -23
-8 -58 -9 -34 -1 -91 -10 -127 -22 -65 -20 -171 -81 -198 -114 -13 -15 -11
-16 30 -9 85 15 486 8 594 -10 174 -31 431 -105 536 -156 48 -24 -45 50 -166
130 -136 91 -358 205 -476 244 -130 44 -260 63 -318 46z m489 -206 c80 -19
193 -56 187 -61 -2 -2 -33 5 -68 15 -106 33 -234 51 -373 53 -97 1 -119 3 -86
9 64 11 264 1 340 -16z"/>
<path d="M8621 1579 c-183 -31 -473 -168 -717 -340 -115 -82 -117 -92 -12 -49
128 50 290 96 433 121 144 25 430 36 560 21 50 -6 92 -9 94 -7 5 6 -56 56 -98
82 -59 35 -157 63 -227 65 -80 3 -73 10 60 65 76 32 86 38 65 44 -33 9 -93 8
-158 -2z m4 -188 c37 -5 4 -9 -125 -13 -170 -5 -219 -13 -385 -63 -11 -3 -2 3
20 13 119 55 342 84 490 63z"/>
<path d="M4085 1244 c-242 -37 -471 -119 -643 -230 -77 -51 -229 -206 -271
-277 -75 -128 -110 -288 -92 -421 21 -146 101 -316 151 -316 35 0 53 30 46 77
-5 40 4 57 19 33 3 -5 22 -10 41 -10 49 0 88 41 110 115 17 61 17 89 -6 280
-14 118 0 241 41 346 28 72 49 100 49 65 0 -26 50 -56 94 -56 47 0 89 24 201
113 85 69 152 105 270 147 253 89 534 103 764 40 36 -10 67 -17 69 -15 5 4
-158 62 -227 80 -173 45 -434 57 -616 29z m-800 -443 c-46 -64 -109 -200 -130
-281 -14 -51 -16 -91 -12 -185 3 -66 8 -131 11 -145 3 -14 -1 -5 -10 20 -9 25
-18 88 -21 140 -5 79 -2 110 16 174 26 94 77 201 132 274 50 66 61 69 14 3z"/>
<path d="M8295 1254 c-136 -21 -377 -87 -415 -115 -12 -9 -11 -10 5 -4 150 50
383 67 550 42 223 -35 409 -111 554 -226 103 -82 138 -101 186 -101 46 0 71
13 89 47 l14 27 19 -40 c48 -94 58 -143 58 -289 0 -77 -4 -183 -9 -235 -7 -78
-6 -106 8 -152 26 -91 84 -126 157 -94 14 6 16 1 12 -38 -6 -52 7 -76 41 -76
31 0 60 34 96 113 42 93 60 176 60 282 0 342 -260 631 -698 775 -191 62 -310
82 -517 85 -99 2 -193 1 -210 -1z m1275 -521 c101 -165 134 -367 85 -514 -9
-26 -13 -32 -10 -14 3 17 8 75 11 130 9 154 -30 289 -131 448 -32 49 -37 61
-16 37 16 -19 44 -58 61 -87z"/>
<path d="M3475 1116 c-114 -36 -219 -92 -323 -170 -117 -88 -131 -96 -175 -96
-57 0 -101 72 -65 108 18 18 -26 16 -62 -3 -59 -30 -76 -105 -40 -175 27 -52
67 -73 136 -68 45 2 53 0 48 -12 -13 -29 -14 -55 -5 -70 13 -19 43 9 124 115
142 187 293 324 420 379 49 22 20 18 -58 -8z"/>
<path d="M9298 1106 c129 -70 260 -193 395 -372 41 -56 83 -104 91 -107 23 -9
38 25 26 57 l-10 26 60 0 c52 0 64 4 95 31 85 75 58 205 -49 229 -35 8 -35 7
-21 -13 23 -32 18 -63 -12 -87 -43 -34 -99 -23 -169 31 -150 117 -241 168
-379 213 -44 14 -82 26 -85 26 -3 0 23 -16 58 -34z"/>
<path d="M4356 1119 c-196 -32 -337 -140 -437 -333 -52 -99 -100 -152 -150
-167 -21 -7 -36 -16 -33 -21 14 -22 112 -68 145 -68 44 0 111 22 148 49 l26
20 15 -32 c28 -59 99 -44 142 29 l21 35 18 -30 c38 -63 103 -77 166 -36 l25
17 -24 15 c-142 95 -182 253 -98 387 33 52 83 88 159 115 l52 18 -32 7 c-39 7
-78 6 -143 -5z m-156 -127 c-90 -63 -120 -115 -121 -218 0 -74 -17 -65 -19 11
l-1 40 -39 -76 c-21 -41 -44 -80 -52 -86 -16 -14 89 200 121 245 24 35 108
102 126 101 6 0 -1 -8 -15 -17z"/>
<path d="M8285 1121 c-16 -5 -22 -9 -13 -10 42 -3 128 -44 163 -79 21 -20 49
-61 63 -91 56 -122 2 -273 -124 -347 -18 -10 -16 -13 16 -33 54 -32 96 -28
136 15 19 19 34 41 34 47 0 7 9 -4 21 -23 28 -46 58 -70 91 -70 34 0 58 24 58
57 l0 26 23 -21 c35 -33 108 -62 158 -62 37 0 58 8 102 37 l56 37 -33 11 c-69
24 -102 61 -169 190 -74 144 -205 254 -355 299 -65 19 -186 28 -227 17z m316
-121 c71 -37 115 -92 184 -232 64 -131 58 -144 -8 -19 l-34 63 -7 -51 c-8 -64
-22 -74 -17 -13 6 83 -14 143 -67 194 -26 25 -60 53 -77 61 -16 9 -26 16 -22
17 4 0 26 -9 48 -20z"/>
<path d="M6264 958 c-192 -167 -293 -289 -301 -363 -5 -38 -2 -45 21 -60 16
-11 35 -15 50 -11 36 9 107 87 154 169 46 80 147 306 140 312 -2 3 -31 -19
-64 -47z"/>
<path d="M6470 1003 c0 -17 65 -166 115 -262 58 -111 111 -181 158 -206 34
-18 39 -19 64 -5 35 19 41 65 17 112 -29 58 -119 162 -210 243 -49 43 -101 90
-116 104 -16 14 -28 20 -28 14z"/>
<path d="M6367 843 c-51 -195 -60 -302 -29 -363 36 -72 110 -60 133 22 9 33 9
65 1 133 -12 93 -57 284 -71 298 -4 4 -20 -36 -34 -90z"/>
</g>
</svg>
